HIERARCHY
ROOT Hips
{
  OFFSET 0 0 0
  CHANNELS 6 Xposition Yposition Zposition Zrotation Xrotation Yrotation
  JOINT Spine
  {
    OFFSET 0 10.0588 -0.358158
    CHANNELS 3 Zrotation Xrotation Yrotation
    JOINT Spine1
    {
      OFFSET 0 11.7428 0
      CHANNELS 3 Zrotation Xrotation Yrotation
      JOINT Spine2
      {
        OFFSET 0 13.4203 0
        CHANNELS 3 Zrotation Xrotation Yrotation
        JOINT Neck
        {
          OFFSET 0 15.0978 0
          CHANNELS 3 Zrotation Xrotation Yrotation
          JOINT Head
          {
            OFFSET 0 8.08556 2.6878
            CHANNELS 3 Zrotation Xrotation Yrotation
            End Site
            {
              OFFSET 0 21.4992 7.1467
            }
          }
        }
        JOINT LeftShoulder
        {
          OFFSET 5.94912 13.2477 -0.0644506
          CHANNELS 3 Zrotation Xrotation Yrotation
          JOINT LeftArm
          {
            OFFSET 0 12.4722 0
            CHANNELS 3 Zrotation Xrotation Yrotation
            JOINT LeftForeArm
            {
              OFFSET 0 23.8149 -1.70767e-05
              CHANNELS 3 Zrotation Xrotation Yrotation
              JOINT LeftHand
              {
                OFFSET 0 24.5563 1.04203e-05
                CHANNELS 3 Zrotation Xrotation Yrotation
                End Site
                {
                  OFFSET -1.85578 17.3552 -0.291151
                }
              }
            }
          }
        }
        JOINT RightShoulder
        {
          OFFSET -5.94912 13.2478 -0.0672943
          CHANNELS 3 Zrotation Xrotation Yrotation
          JOINT RightArm
          {
            OFFSET 0 12.4722 1.01534e-05
            CHANNELS 3 Zrotation Xrotation Yrotation
            JOINT RightForeArm
            {
              OFFSET 0 23.8199 0
              CHANNELS 3 Zrotation Xrotation Yrotation
              JOINT RightHand
              {
                OFFSET 0 24.5599 -1.20798e-05
                CHANNELS 3 Zrotation Xrotation Yrotation
                End Site
                {
                  OFFSET 1.86614 17.4983 -0.349753
                }
              }
            }
          }
        }
      }
    }
  }
  JOINT LeftUpLeg
  {
    OFFSET 9.39209 -5.57221 -0.0932092
    CHANNELS 3 Zrotation Xrotation Yrotation
    JOINT LeftLeg
    {
      OFFSET -8.56873e-05 42.3183 -0.00043952
      CHANNELS 3 Zrotation Xrotation Yrotation
      JOINT LeftFoot
      {
        OFFSET 0 39.0997 0
        CHANNELS 3 Zrotation Xrotation Yrotation
        JOINT LeftToe
        {
          OFFSET 0 14.7062 0
          CHANNELS 3 Zrotation Xrotation Yrotation
          End Site
          {
            OFFSET 0 5.95384 0
          }
        }
      }
    }
  }
  JOINT RightUpLeg
  {
    OFFSET -9.3921 -5.57221 -0.0152273
    CHANNELS 3 Zrotation Xrotation Yrotation
    JOINT RightLeg
    {
      OFFSET -0.00139831 42.3259 0.00678703
      CHANNELS 3 Zrotation Xrotation Yrotation
      JOINT RightFoot
      {
        OFFSET 0 39.0934 0
        CHANNELS 3 Zrotation Xrotation Yrotation
        JOINT RightToe
        {
          OFFSET 0 14.5999 0
          CHANNELS 3 Zrotation Xrotation Yrotation
          End Site
          {
            OFFSET 0 6.0364 0
          }
        }
      }
    }
  }
}
MOTION
Frames:	16
Frame Time:	0.0416667
9.83046 91.4284 149.869 -168.501 10.9822 90.6949 -7.96999 1.921 -2.41817 -2.94168 -1.25553 -1.13056 -2.92607 -1.24383 -1.1747 0.912747 -14.1755 -0.939559 -5.32123 -29.9904 -14.2153 -99.1914 20.0829 96.5634 -5.85023 -56.3244 -65.5393 61.5607 0.897951 -0.948255 88.1084 -58.336 104.314 93.0956 2.71894 -92.5867 -46.5149 -35.6159 54.0007 -53.0803 0.760447 0.894501 -92.6913 -31.6181 -108.006 -107.961 33.9326 -40.8416 -0.958734 -33.14 -9.34408 4.35681 71.035 -21.6039 0.154186 33.2966 -0.280864 130.572 30.5478 31.7787 1.58675 -52.0843 7.78267 -36.5258 76.5171 34.1377 0.0329817 33.5225 -0.0597201 
9.92131 91.2474 150.673 -169.45 3.32267 86.2352 -2.78277 1.25194 -1.49694 -1.74773 -0.860042 -0.826174 -1.73901 -0.859093 -0.842193 0.847849 -14.3679 -1.20504 -6.12292 -28.3848 -15.1751 -99.151 20.1004 96.5578 -11.7539 -56.094 -72.154 61.2803 0.894185 -0.942022 85.1157 -57.0627 99.4295 92.8977 2.98007 -92.8373 -48.3366 -36.5936 54.6298 -53.7537 0.767004 0.903912 -92.5214 -31.4129 -109.945 -124.923 35.4993 -29.0582 -0.47269 -44.0904 -7.77289 16.6636 72.5022 -42.1421 0.154186 33.2966 -0.280864 117.205 34.8406 41.0263 1.68058 -47.2415 7.61117 -29.5641 77.9265 31.9531 0.0329817 33.5225 -0.0597201 
8.92332 91.6976 151.558 -169.939 -5.153 81.1995 1.87548 1.10386 -0.664852 -0.390161 -0.855127 -0.508615 -0.384923 -0.857858 -0.507655 0.871 -14.2578 -1.41003 -6.3516 -26.6081 -15.2589 -98.9916 20.1829 96.5412 -17.2025 -54.8941 -77.6295 61.4974 0.905372 -0.956086 81.0853 -54.6917 93.2538 92.5876 4.20611 -93.1042 -48.8595 -37.9597 50.4878 -53.4124 0.763654 0.899132 -90.9856 -31.8712 -112.855 -144.825 31.861 -19.3366 -0.144984 -47.5166 -7.26343 26.9455 71.7968 -51.4158 0.154186 33.2966 -0.280864 105.278 36.9213 50.9955 1.34114 -35.9841 8.35414 -23.7166 77.7098 28.3213 0.0329817 33.5225 -0.0597201 
6.97724 92.7284 154.523 -170.193 -13.2369 75.0955 5.22864 1.43551 0.203932 1.22094 -1.08703 -0.0650727 1.22161 -1.08821 -0.0452486 0.904093 -13.9734 -1.5662 -5.8644 -24.7708 -14.8779 -99.1126 20.1472 96.5648 -21.987 -55.4504 -82.3754 57.8954 0.864155 -0.889506 79.9815 -52.0414 87.1782 92.0624 6.97613 -93.3085 -47.2981 -39.0384 44.237 -53.7237 0.76658 0.903435 -89.5299 -34.5384 -116.984 -162.58 24.69 -13.0092 -0.399196 -43.8549 -8.11303 20.8583 68.9174 -40.7231 0.154186 33.2966 -0.280864 92.4649 39.6301 63.1282 1.0576 -28.3962 6.79876 -26.8085 80.1953 32.8157 0.0329817 33.5225 -0.0597201 
4.49351 94.178 160.447 -170.559 -22.2965 68.8746 7.34095 2.19672 0.977742 3.0404 -1.19187 0.394716 3.03535 -1.1898 0.438676 1.00528 -13.6237 -1.67676 -4.97751 -23.3538 -14.4533 -99.6459 19.8518 96.6118 -23.1044 -63.8731 -82.3887 43.9718 0.704114 -0.711879 82.9042 -50.5798 78.9689 91.5705 11.3355 -93.4761 -43.3933 -39.3369 40.2201 -54.75 0.776251 0.917929 -87.6214 -40.1697 -120.279 -176.257 18.4371 -8.59296 -0.866543 -38.733 -9.02424 10.1338 65.3634 -25.1932 0.154186 33.2966 -0.280864 74.7608 42.9473 79.4995 1.07828 -30.075 2.71123 -78.4111 85.4137 85.316 0.0329817 33.5225 -0.0597201 
2.18323 95.7256 169.094 -171.953 -33.1949 61.9143 8.97177 3.22023 1.50305 4.92339 -0.823629 0.723754 4.9136 -0.819042 0.79149 1.55163 -13.1185 -1.78383 -4.00659 -22.45 -14.2123 -98.8359 20.1929 96.4999 -14.8411 -78.8502 -69.2763 19.2891 0.332586 -0.49549 91.3441 -52.4967 71.4971 91.5664 16.2076 -93.7221 -38.0165 -38.827 39.7991 -56.1213 0.789327 0.938233 -85.3687 -46.6048 -122.217 174.334 18.078 -5.14017 -1.19203 -38.5659 -7.05456 3.14391 64.4165 -14.7546 0.154186 33.2966 -0.280864 57.2838 43.7486 96.1942 1.1103 -32.7607 -1.13711 -102.467 85.7036 110.733 0.0329817 33.5225 -0.0597201 
0.408256 96.2788 180.073 -174.875 -45.8563 54.0687 10.2116 4.25637 1.73543 6.48581 0.0663224 0.86556 6.4734 0.0730422 0.948028 2.7914 -12.1898 -2.01479 -2.67851 -21.4068 -14.3753 -94.818 22.1585 96.106 56.6741 -88.0671 13.1749 1.84293 -0.00562878 -0.463437 78.4115 -58.2242 42.7158 91.629 19.8617 -94.0406 -30.483 -35.0512 42.4552 -60.4312 0.82198 0.99877 -82.581 -54.0635 -124.38 169.167 22.1641 -2.92079 -0.925033 -41.3717 -0.449771 2.80874 64.8436 -14.7365 0.154186 33.2966 -0.280864 47.2013 43.4159 107.273 1.17647 -34.2438 -2.27286 -50.9099 84.9813 60.0841 0.0329817 33.5225 -0.0597201 
-0.390194 94.2215 192.309 -179.481 -59.4599 45.3121 11.0351 5.22453 1.70432 7.20837 1.05205 0.845236 7.19537 1.05981 0.929572 3.81979 -10.9597 -2.34307 -0.92266 -19.5229 -14.8573 -89.7838 24.292 95.3251 -11.0194 -86.8025 -39.7146 8.5692 0.145538 -0.46405 36.9106 -58.1571 7.13585 91.1794 21.7996 -94.3127 -24.2503 -28.7821 45.082 -64.7722 0.866569 1.0732 -84.4806 -62.1607 -130.114 168.042 27.8777 -1.98127 -0.636671 -43.8927 -0.153309 1.77393 66.1904 -15.6651 0.154186 33.2966 -0.280864 46.0685 49.3165 112.574 1.44024 -36.8756 -0.962643 -110.817 79.4659 105.612 0.0329817 33.5225 -0.0597201 
-0.415757 91.0528 204.424 169.659 -71.7006 31.002 11.8971 6.25152 1.24129 7.03269 1.70666 0.638413 7.02238 1.7122 0.717157 3.71156 -9.86492 -2.51959 -0.11926 -17.1212 -15.0788 -88.2594 23.8456 94.8861 -24.7924 -82.0888 -41.6283 16.7583 0.289761 -0.489307 3.30885 -48.3129 -13.4714 90.5324 22.6751 -94.5618 -24.4002 -26.4318 44.3935 -56.1584 0.78906 0.938103 -87.8201 -72.1543 -129.959 168.128 33.8814 -1.42919 -1.4043 -44.7438 -7.06813 8.43455 69.9735 -23.2821 0.154186 33.2966 -0.280864 34.3491 52.3276 126.689 1.88125 -56.1216 1.08377 -135.912 73.5918 121.245 0.0329817 33.5225 -0.0597201 
0.373425 89.9666 216.012 136.645 -79.5001 -3.97064 12.9585 7.65626 0.463681 6.57064 2.21488 0.221283 6.56743 2.21519 0.294273 2.28146 -9.1498 -2.34197 -1.27757 -15.2936 -14.7925 -92.2153 19.7647 94.7549 -17.0773 -81.3837 -31.3997 16.3217 0.282095 -0.487457 -10.7253 -38.5099 -23.8905 91.2679 23.2039 -95.0137 -32.6881 -33.6513 38.593 -29.1279 0.445025 0.596157 -67.9547 -82.0316 -95.9719 166.196 41.7848 0.627685 -0.915056 -44.388 -6.91262 27.0345 72.4663 -41.3227 0.154186 33.2966 -0.280864 26.9138 52.6936 136.187 2.49102 -65.2342 5.46903 -126.978 75.7325 113.472 0.0329817 33.5225 -0.0597201 
1.74216 90.602 226.927 77.2287 -78.9156 -62.4011 13.6028 9.37443 -0.32805 6.36611 2.95841 -0.191911 6.37093 2.95262 -0.122084 1.32067 -8.36866 -2.12383 -2.90434 -14.3251 -14.3401 -97.544 15.776 94.8407 9.33445 -81.0997 -9.24856 14.3985 0.248475 -0.479645 -10.8528 -31.9297 -28.4397 94.3373 22.9425 -95.7422 -34.7708 -39.7666 35.746 -12.2967 0.177887 0.521015 23.7738 -72.9995 8.84783 164.159 47.4767 3.11815 -0.372223 -42.8462 -6.54153 33.5193 70.9634 -47.5966 0.154186 33.2966 -0.280864 27.7636 52.2812 136.172 2.70441 -66.6029 9.43544 -92.7254 78.452 81.4634 0.0329817 33.5225 -0.0597201 
3.43642 91.6855 237.122 46.3388 -71.0953 -90.9085 13.4613 10.8194 -0.949294 6.29009 3.76431 -0.486418 6.30149 3.75422 -0.41949 1.34508 -7.06295 -2.01319 -3.38796 -13.1629 -13.5686 -100.877 14.2754 95.0216 32.8245 -76.6265 8.00234 15.9422 0.276462 -0.485706 -4.3775 -26.6613 -22.8046 99.3975 21.1734 -96.4816 -20.1627 -34.3605 41.7584 -24.482 0.387089 0.56629 34.7502 -53.7341 25.2745 163.45 49.4154 4.05761 0.181258 -40.9038 -6.80771 39.5709 63.9783 -52.9327 0.154186 33.2966 -0.280864 33.6199 53.6843 130.589 2.41215 -63.62 11.5047 -52.9255 74.3928 44.0323 0.0329817 33.5225 -0.0597201 
5.11747 92.4737 246.59 35.0211 -61.7245 -100.084 12.697 11.3581 -1.68004 6.00926 4.22319 -0.9219 6.03019 4.20844 -0.862103 1.79175 -5.09237 -1.89421 -3.63525 -10.7552 -12.0352 -102.573 14.3481 95.2871 39.6352 -69.1949 11.2349 20.4462 0.351426 -0.507539 1.87822 -20.9307 -9.79387 105.821 17.7715 -96.8698 -3.39561 -21.1577 48.9718 -48.9645 0.718428 0.838538 35.3496 -36.3211 26.7063 165.291 49.3778 1.80158 0.630589 -38.2124 -7.38687 36.9837 52.6109 -49.6679 0.154186 33.2966 -0.280864 43.0456 56.2722 121.389 1.56273 -57.8668 11.0376 -37.7236 65.0432 31.4675 0.0329817 33.5225 -0.0597201 
6.40596 92.6092 255.35 28.562 -52.3691 -103.847 11.7318 11.187 -2.65206 5.55564 4.27283 -1.52028 5.58859 4.25291 -1.4708 2.22762 -2.68807 -1.69856 -4.70607 -7.05051 -9.97738 -104.903 14.1079 95.6161 34.4902 -61.985 5.9034 25.5851 0.43866 -0.540855 1.94062 -15.4956 1.06475 113.299 13.5968 -96.848 0.344054 -15.8893 49.3468 -52.6195 0.757689 0.884677 27.1566 -21.0513 26.7722 168.066 46.5329 -1.93144 0.938665 -34.2452 -7.54512 29.0322 41.1034 -44.0092 0.154186 33.2966 -0.280864 56.4977 57.6606 109.08 1.13237 -51.5478 10.5383 -29.9981 56.2698 26.0193 0.0329817 33.5225 -0.0597201 
7.25814 92.1667 263.513 23.0307 -42.6126 -105.819 10.771 11.1384 -3.33995 5.13513 4.00617 -1.97173 5.17708 3.9853 -1.92752 2.6392 -0.419181 -1.43995 -5.8306 -3.42682 -7.50105 -107.741 13.0706 95.7304 24.6152 -55.4067 -2.48376 33.5289 0.557318 -0.604285 -4.34653 -12.0702 5.23966 120.525 10.0607 -96.6303 -1.70447 -17.7563 47.1948 -43.6219 0.648605 0.766066 17.3897 -7.58461 28.5657 171.552 40.9371 -5.43742 1.34495 -34.7657 -8.35519 29.9593 43.4918 -52.2306 0.154186 33.2966 -0.280864 74.0142 56.931 93.9122 0.878472 -44.9704 10.3446 -25.0581 48.3367 23.1731 0.0329817 33.5225 -0.0597201 
8.04004 91.4208 270.754 18.8509 -33.1874 -106.129 9.49298 11.4303 -3.73678 4.71956 3.48992 -2.26953 4.76892 3.47471 -2.22167 2.7977 1.07151 -0.966121 -5.7411 -1.96158 -4.55132 -110.162 10.8544 95.2114 17.0285 -48.5757 -8.1863 45.0532 0.713941 -0.721279 -12.899 -11.4613 5.37761 125.374 7.94342 -96.5251 -0.821287 -16.4813 46.7165 -38.6135 0.598417 0.713906 10.6609 0.769901 28.1675 177.358 34.9197 -9.99441 1.37319 -38.4422 -9.17783 35.6636 55.7946 -68.0117 0.154186 33.2966 -0.280864 91.8996 53.8511 78.306 0.563236 -36.9508 10.1632 -21.9106 39.7366 23.2755 0.0329817 33.5225 -0.0597201 
